<svg width="362" height="94" viewBox="0 0 362 94" fill="none" xmlns="http://www.w3.org/2000/svg">
<path d="M148.005 41.3016L139.255 39.657C133.477 38.5058 132.156 37.848 132.156 34.7233C132.156 31.5985 134.137 30.2829 140.576 30.2829C147.84 30.2829 149.987 31.9275 149.987 37.1902V38.0125L160.883 35.0522C160.058 26.5003 153.949 20.2509 140.906 20.2509C126.708 20.2509 121.259 27.6515 121.259 35.2166C121.259 42.9462 125.222 47.5511 134.632 49.1957L143.383 50.6758C150.317 51.827 151.142 52.9783 151.142 56.2674C151.142 59.5566 149.656 60.8723 143.218 60.8723C134.302 60.8723 132.321 59.3922 132.321 53.965V53.1427L121.424 56.103C122.25 65.8061 129.019 70.9043 142.557 70.9043C156.591 70.9043 161.874 63.8326 161.874 55.9385C162.039 48.8668 158.407 43.4396 148.005 41.3016Z" fill="black"/>
<path d="M201.828 48.5379V47.7156C201.828 38.6703 194.563 32.5853 184.657 32.5853C172.275 32.5853 165.176 40.1505 165.176 51.9915C165.176 63.6681 171.78 71.0688 183.997 71.0688C194.233 71.0688 201.663 64.9838 201.663 55.9385V55.1162H190.601V55.6096C190.601 59.7211 188.29 61.2012 183.667 61.2012C178.384 61.2012 176.072 58.7344 176.072 51.8271C176.072 44.9198 178.384 42.4529 183.667 42.4529C188.29 42.4529 190.601 43.7686 190.601 48.0445V48.7023H201.828V48.5379Z" fill="black"/>
<path d="M224.116 32.4208C213.715 32.4208 206.78 38.1768 206.78 47.0576V47.8799L217.347 47.0576C217.347 43.2751 219.163 42.1239 223.62 42.1239C227.913 42.1239 230.39 42.9462 230.39 47.2221V48.3733L217.677 50.3468C210.082 51.498 205.955 55.1162 205.955 60.7078C205.955 67.4506 211.073 70.9042 217.677 70.9042C224.611 70.9042 228.243 67.944 230.39 65.1482H230.885V70.0819H241.121V48.2089C240.791 38.5058 235.012 32.4208 224.116 32.4208ZM221.144 62.5168C217.842 62.5168 216.356 61.859 216.356 59.8855C216.356 58.4053 217.347 57.583 219.658 57.2541L230.224 55.6095C230.224 61.3656 225.602 62.5168 221.144 62.5168Z" fill="black"/>
<path d="M247.395 23.869V70.2465H258.457V20.9087L247.395 23.869Z" fill="black"/>
<path d="M265.39 23.869V70.2465H276.452V20.9087L265.39 23.869Z" fill="black"/>
<path fill-rule="evenodd" clip-rule="evenodd" d="M300.557 32.4208C288.67 32.4208 281.57 39.9859 281.57 51.6625C281.57 63.3391 288.67 70.9042 300.557 70.9042C312.444 70.9042 319.378 63.3391 319.378 51.6625C319.378 39.9859 312.444 32.4208 300.557 32.4208ZM300.895 61.8904C295.255 61.8904 290.667 57.3023 290.667 51.6626C290.667 46.0228 295.255 41.4347 300.895 41.4347C301.749 41.4347 302.604 41.5399 303.445 41.7502C303.616 41.8028 303.774 41.9211 303.853 42.0789L304.017 42.3988C305.236 44.7756 307.324 46.5913 309.847 47.4689C310.11 47.5609 310.281 47.7975 310.281 48.0736V55.2384C310.281 55.5144 310.11 55.7511 309.847 55.8431C307.324 56.7209 305.233 58.534 304.007 60.9082L303.84 61.2331C303.761 61.404 303.603 61.5223 303.432 61.5618C302.591 61.7852 301.736 61.8904 300.895 61.8904Z" fill="black"/>
<path d="M346.124 32.4208C340.51 32.4208 336.218 34.5587 334.237 38.6702H333.906V33.2431H323.67V82.5808L334.732 79.6206V65.3126H335.062C336.713 68.4374 340.345 70.9042 346.289 70.9042C356.36 70.9042 361.973 63.3391 361.973 51.6625C362.138 39.9859 356.525 32.4208 346.124 32.4208ZM342.822 61.5301C337.539 61.5301 334.732 59.721 334.732 54.6228V48.7022C334.732 43.7685 337.704 41.795 342.822 41.795C349.261 41.795 350.912 44.9197 350.912 51.6625C350.912 58.4053 349.261 61.5301 342.822 61.5301Z" fill="black"/>
<path d="M65.1883 6.13375C57.8387 13.7061 50.4891 21.2506 43.1395 28.8229C43.056 28.8786 43.0003 28.9343 42.9168 29.0178L26.9091 45.0255C25.3779 46.5566 25.3779 49.09 26.9091 50.6212L42.0816 65.7937L23.4013 85.3648C20.506 83.3882 17.7499 81.1054 15.0216 78.3493C-4.5495 58.806 -5.21764 34.6413 14.4927 14.9032C30.1106 -0.714757 48.5403 -3.3595 65.1883 6.13375Z" fill="url(#paint0_linear)"/>
<path d="M78.3286 78.7112C62.7385 94.2735 44.4201 97.0574 27.8835 88.121L34.4536 81.2446C39.4925 76.0386 44.5036 70.8605 49.5426 65.6545L54.6094 60.5877L64.548 50.6491C66.0792 49.1179 66.0792 46.5845 64.548 45.0533L59.9824 40.4877L49.4869 29.9922L67.9723 10.6438L69.587 8.97339C72.3153 10.8943 75.0435 13.205 77.6326 15.7941C97.0367 35.1425 97.8719 59.1401 78.3286 78.7112Z" fill="url(#paint1_linear)"/>
<defs>
<linearGradient id="paint0_linear" x1="53.5" y1="-30.5" x2="-70.9923" y2="241.504" gradientUnits="userSpaceOnUse">
<stop stop-color="#00DECA"/>
<stop offset="0.37798" stop-color="#3A8AFA"/>
<stop offset="1" stop-color="#1A6AF4"/>
</linearGradient>
<linearGradient id="paint1_linear" x1="80.9852" y1="-21.9388" x2="-42.7421" y2="248.25" gradientUnits="userSpaceOnUse">
<stop stop-color="#00DECA"/>
<stop offset="0.37798" stop-color="#3A8AFA"/>
<stop offset="1" stop-color="#1A6AF4"/>
</linearGradient>
</defs>
</svg>
