<svg width="93" height="94" viewBox="0 0 93 94" fill="none" xmlns="http://www.w3.org/2000/svg">
<path d="M65.1883 6.13375C57.8387 13.7061 50.4891 21.2506 43.1395 28.8229C43.056 28.8786 43.0003 28.9343 42.9168 29.0178L26.9091 45.0255C25.3779 46.5566 25.3779 49.09 26.9091 50.6212L42.0816 65.7937L23.4013 85.3648C20.506 83.3882 17.7499 81.1054 15.0216 78.3493C-4.5495 58.806 -5.21764 34.6413 14.4927 14.9032C30.1106 -0.714757 48.5403 -3.3595 65.1883 6.13375Z" fill="url(#paint0_linear)"/>
<path d="M78.3286 78.7112C62.7385 94.2735 44.4201 97.0574 27.8835 88.121L34.4536 81.2446C39.4925 76.0386 44.5036 70.8605 49.5426 65.6545L54.6094 60.5877L64.548 50.6491C66.0792 49.1179 66.0792 46.5845 64.548 45.0533L59.9824 40.4877L49.4869 29.9922L67.9723 10.6438L69.587 8.97339C72.3153 10.8943 75.0435 13.205 77.6326 15.7941C97.0367 35.1425 97.8719 59.1401 78.3286 78.7112Z" fill="url(#paint1_linear)"/>
<defs>
<linearGradient id="paint0_linear" x1="53.5" y1="-30.5" x2="-70.9923" y2="241.504" gradientUnits="userSpaceOnUse">
<stop stop-color="#00DECA"/>
<stop offset="0.37798" stop-color="#3A8AFA"/>
<stop offset="1" stop-color="#1A6AF4"/>
</linearGradient>
<linearGradient id="paint1_linear" x1="80.9852" y1="-21.9388" x2="-42.7421" y2="248.25" gradientUnits="userSpaceOnUse">
<stop stop-color="#00DECA"/>
<stop offset="0.37798" stop-color="#3A8AFA"/>
<stop offset="1" stop-color="#1A6AF4"/>
</linearGradient>
</defs>
</svg>
