<svg width="146" height="26" viewBox="0 0 146 26" fill="none" xmlns="http://www.w3.org/2000/svg">
<path d="M41.1924 11.4132L38.7812 10.9601C37.189 10.6429 36.825 10.4616 36.825 9.60057C36.825 8.73955 37.371 8.37702 39.1452 8.37702C41.1469 8.37702 41.7383 8.83018 41.7383 10.2803V10.5069L44.7408 9.6912C44.5133 7.33473 42.8301 5.6127 39.2362 5.6127C35.3238 5.6127 33.8225 7.65195 33.8225 9.73652C33.8225 11.8664 34.9143 13.1353 37.5074 13.5884L39.9186 13.9963C41.8293 14.3135 42.0567 14.6307 42.0567 15.537C42.0567 16.4434 41.6473 16.8059 39.8731 16.8059C37.4164 16.8059 36.8705 16.3981 36.8705 14.9026V14.676L33.868 15.4917C34.0955 18.1654 35.9607 19.5702 39.6911 19.5702C43.558 19.5702 45.0138 17.6216 45.0138 15.4464C45.0593 13.4978 44.0584 12.0023 41.1924 11.4132Z" fill="black"/>
<path d="M56.023 13.4072V13.1806C56.023 10.6882 54.0213 9.01144 51.2917 9.01144C47.8798 9.01144 45.9236 11.096 45.9236 14.3588C45.9236 17.5763 47.7433 19.6155 51.1098 19.6155C53.9303 19.6155 55.9775 17.9388 55.9775 15.4464V15.2198H52.9295V15.3558C52.9295 16.4887 52.2926 16.8965 51.0188 16.8965C49.563 16.8965 48.9261 16.2168 48.9261 14.3135C48.9261 12.4102 49.563 11.7304 51.0188 11.7304C52.2926 11.7304 52.9295 12.093 52.9295 13.2712V13.4525H56.023V13.4072Z" fill="black"/>
<path d="M62.1646 8.96613C59.2986 8.96613 57.3879 10.5522 57.3879 12.9993V13.2259L60.2994 12.9993C60.2994 11.957 60.7998 11.6398 62.0281 11.6398C63.2109 11.6398 63.8933 11.8664 63.8933 13.0446V13.3618L60.3904 13.9056C58.2977 14.2229 57.1604 15.2198 57.1604 16.7606C57.1604 18.6186 58.5707 19.5702 60.3904 19.5702C62.3011 19.5702 63.3019 18.7545 63.8933 17.9841H64.0298V19.3436H66.8504V13.3165C66.7594 10.6428 65.1671 8.96613 62.1646 8.96613ZM61.3457 17.2591C60.4359 17.2591 60.0264 17.0778 60.0264 16.534C60.0264 16.1262 60.2994 15.8996 60.9363 15.8089L63.8478 15.3558C63.8478 16.9419 62.574 17.2591 61.3457 17.2591Z" fill="black"/>
<path d="M68.5791 6.60968V19.389H71.6271V5.79398L68.5791 6.60968Z" fill="black"/>
<path d="M73.5376 6.60968V19.389H76.5856V5.79398L73.5376 6.60968Z" fill="black"/>
<path fill-rule="evenodd" clip-rule="evenodd" d="M83.2278 8.96613C79.9523 8.96613 77.9961 11.0507 77.9961 14.2682C77.9961 17.4857 79.9523 19.5702 83.2278 19.5702C86.5033 19.5702 88.414 17.4857 88.414 14.2682C88.414 11.0507 86.5033 8.96613 83.2278 8.96613ZM83.3209 17.0865C81.7669 17.0865 80.5026 15.8222 80.5026 14.2682C80.5026 12.7141 81.7669 11.4499 83.3209 11.4499C83.5564 11.4499 83.7918 11.4789 84.0237 11.5368C84.0708 11.5513 84.1142 11.5839 84.136 11.6274L84.1812 11.7156C84.5172 12.3705 85.0926 12.8708 85.7878 13.1126C85.8603 13.138 85.9074 13.2032 85.9074 13.2793V15.2535C85.9074 15.3296 85.8603 15.3948 85.7878 15.4201C85.0924 15.662 84.5164 16.1616 84.1786 16.8158L84.1324 16.9053C84.1106 16.9524 84.0672 16.985 84.0201 16.9959C83.7882 17.0575 83.5528 17.0865 83.3209 17.0865Z" fill="black"/>
<path d="M95.7837 8.96613C94.237 8.96613 93.0541 9.55524 92.5082 10.6882H92.4172V9.19271H89.5967V22.7877L92.6447 21.972V18.0295H92.7357C93.1906 18.8905 94.1915 19.5702 95.8292 19.5702C98.6043 19.5702 100.151 17.4857 100.151 14.2682C100.197 11.0507 98.6498 8.96613 95.7837 8.96613ZM94.8739 16.9872C93.4181 16.9872 92.6447 16.4887 92.6447 15.0839V13.4525C92.6447 12.093 93.4636 11.5492 94.8739 11.5492C96.6481 11.5492 97.103 12.4102 97.103 14.2682C97.103 16.1262 96.6481 16.9872 94.8739 16.9872Z" fill="black"/>
<path d="M18.3722 1.72274C16.3471 3.80929 14.3219 5.88817 12.2967 7.97472C12.2737 7.99007 12.2583 8.00541 12.2353 8.02842L7.82441 12.4393C7.40249 12.8612 7.40249 13.5593 7.82441 13.9812L12.0052 18.162L6.85784 23.5548C6.06004 23.0102 5.3006 22.3811 4.54883 21.6217C-0.843987 16.2365 -1.02809 9.57799 4.40308 4.13915C8.70659 -0.164363 13.7849 -0.893122 18.3722 1.72274Z" fill="url(#paint0_linear_5_185)"/>
<path d="M21.9931 21.7214C17.6973 26.0096 12.6497 26.7767 8.09302 24.3143L9.90341 22.4195C11.2919 20.985 12.6727 19.5581 14.0612 18.1236L15.4573 16.7275L18.1959 13.9889C18.6178 13.567 18.6178 12.8689 18.1959 12.447L16.9378 11.1889L14.0458 8.2969L19.1395 2.96546L19.5844 2.50519C20.3362 3.0345 21.0879 3.6712 21.8014 4.38462C27.1481 9.71606 27.3783 16.3286 21.9931 21.7214Z" fill="url(#paint1_linear_5_185)"/>
<path d="M106.531 19.7558C109.364 19.7558 110.934 18.5328 110.934 16.6167C110.934 14.9452 110.037 13.9668 107.876 13.5591L106.001 13.1718C104.778 12.9272 104.594 12.7845 104.594 12.2953C104.594 11.8061 104.879 11.5411 106.103 11.5411C107.407 11.5411 107.692 11.908 107.692 12.5807V12.866H110.607V12.5807C110.607 10.2773 108.691 9.095 106.184 9.095C103.269 9.095 101.72 10.4403 101.72 12.3361C101.72 14.2318 102.821 15.0879 104.839 15.4548L106.388 15.7402C107.754 15.9848 108.039 16.1071 108.039 16.6575C108.039 17.1671 107.835 17.3505 106.592 17.3505C105.104 17.3505 104.655 17.1874 104.655 16.4332V16.0052H101.74V16.0663C101.74 18.5532 103.31 19.7558 106.531 19.7558Z" fill="black"/>
<path d="M117.148 19.7558C119.982 19.7558 122.04 18.0843 122.04 15.5567V15.3121H118.983V15.4752C118.983 16.6371 118.331 17.0244 117.067 17.0244C115.599 17.0244 114.967 16.3313 114.967 14.4356C114.967 12.5195 115.599 11.8265 117.067 11.8265C118.331 11.8265 118.983 12.2138 118.983 13.3756V13.5387H122.04V13.2941C122.04 10.7665 120.043 9.095 117.311 9.095C113.887 9.095 111.95 11.1742 111.95 14.456C111.95 17.697 113.765 19.7558 117.148 19.7558Z" fill="black"/>
<path d="M126.338 19.7558C128.234 19.7558 129.273 18.9201 129.824 18.1659H129.946V19.552H132.779V13.4776C132.779 10.7461 131.189 9.095 128.173 9.095C125.278 9.095 123.382 10.7053 123.382 13.1514V13.3756H126.297V13.1514C126.297 12.1118 126.786 11.7653 128.03 11.7653C129.232 11.7653 129.885 11.9895 129.885 13.1922V13.5183L126.379 14.0483C124.259 14.3745 123.117 15.3529 123.117 16.9428C123.117 18.7978 124.524 19.7558 126.338 19.7558ZM126.032 16.6982C126.032 16.2702 126.318 16.0663 126.949 15.9644L129.885 15.516C129.885 17.1059 128.601 17.4321 127.357 17.4321C126.46 17.4321 126.032 17.2486 126.032 16.6982Z" fill="black"/>
<path d="M137.63 19.552V13.7426C137.63 12.1934 138.261 11.7245 139.729 11.7245C141.278 11.7245 141.747 12.2341 141.747 13.661V19.552H144.805V13.0495C144.805 10.8684 143.663 9.095 140.993 9.095C139.199 9.095 138.098 9.93075 137.548 11.0926H137.426V9.29884H134.592V19.552H137.63Z" fill="black"/>
<defs>
<linearGradient id="paint0_linear_5_185" x1="15.1515" y1="-8.37167" x2="-19.1523" y2="66.5787" gradientUnits="userSpaceOnUse">
<stop stop-color="#00DECA"/>
<stop offset="0.37798" stop-color="#3A8AFA"/>
<stop offset="1" stop-color="#1A6AF4"/>
</linearGradient>
<linearGradient id="paint1_linear_5_185" x1="22.7252" y1="-6.01266" x2="-11.3678" y2="68.4377" gradientUnits="userSpaceOnUse">
<stop stop-color="#00DECA"/>
<stop offset="0.37798" stop-color="#3A8AFA"/>
<stop offset="1" stop-color="#1A6AF4"/>
</linearGradient>
</defs>
</svg>
